<?xml version="1.0" encoding="UTF-8" standalone="no"?>
<svg
   xmlns:dc="http://purl.org/dc/elements/1.1/"
   xmlns:cc="http://creativecommons.org/ns#"
   xmlns:rdf="http://www.w3.org/1999/02/22-rdf-syntax-ns#"
   xmlns:svg="http://www.w3.org/2000/svg"
   xmlns="http://www.w3.org/2000/svg"
   id="svg8"
   version="1.1"
   viewBox="0 0 46.452293 20.999926"
   height="20.999926mm"
   width="46.452293mm">
  <defs
     id="defs2" />
  <metadata
     id="metadata5">
    <rdf:RDF>
      <cc:Work
         rdf:about="">
        <dc:format>image/svg+xml</dc:format>
        <dc:type
           rdf:resource="http://purl.org/dc/dcmitype/StillImage" />
        <dc:title></dc:title>
      </cc:Work>
    </rdf:RDF>
  </metadata>
  <g
     transform="translate(-79.2054,-135.49855)"
     id="layer1">
    <g
       transform="matrix(0.35277778,0,0,0.35277778,-90.362101,38.459167)"
       id="surface316701">
      <g
         transform="translate(67.5,-85.178571)"
         id="g5000">
        <path
           id="path403-4"
           d="m 413.16378,387.78209 32.07813,-15.49219 v 5.13672 l -26.85547,12.54687 26.85547,12.46094 v 5.05078 l -32.07813,-15.40625 z m 0,0"
           style="fill:#000000;fill-opacity:1;fill-rule:nonzero;stroke:none;stroke-width:0.99999994" />
        <path
           id="path405-4"
           d="m 463.85129,360.25083 h 4.71483 l -16.16796,59.52735 h -4.71484 z m 0,0"
           style="fill:#ff7d0a;fill-opacity:1;fill-rule:nonzero;stroke:none;stroke-width:0.49999997;stroke-linecap:butt;stroke-linejoin:miter;stroke-miterlimit:10;stroke-opacity:1" />
        <path
           id="path407-1"
           d="m 473.363,360.25083 16.16407,59.52735 h -4.71485 l -16.16797,-59.52735 z m 0,0"
           style="fill:#ff7d0a;fill-opacity:1;fill-rule:nonzero;stroke:none;stroke-width:0.49999997;stroke-linecap:butt;stroke-linejoin:miter;stroke-miterlimit:10;stroke-opacity:1" />
        <path
           id="path409-1"
           d="m 505.60909,360.25083 h 4.71485 l -16.16796,59.52735 h -4.71486 z m 0,0"
           style="fill:#ff7d0a;fill-opacity:1;fill-rule:nonzero;stroke:none;stroke-width:0.49999997;stroke-linecap:butt;stroke-linejoin:miter;stroke-miterlimit:10;stroke-opacity:1" />
        <path
           id="path411-0"
           d="m 512.76144,402.43443 26.77344,-12.46094 -26.77344,-12.54687 v -5.13672 l 32.07813,15.49219 v 4.29687 l -32.07813,15.40625 z m 0,0"
           style="fill:#000000;fill-opacity:1;fill-rule:nonzero;stroke:none;stroke-width:0.99999994" />
      </g>
    </g>
  </g>
</svg>
